# xmcd CD database file
#
# Track frame offsets:
#	150
#	24514
#	41188
#	56130
#	67780
#	80800
#	97882
#	116457
#	133649
#	146066
#
# Disc length: 2110 seconds
#
# Revision: 1
# Processed by: cddbd v1.5.1PL2 Copyright (c) Steve Scherf et al.
# Submitted via: Feurio! 1.67 - http://www.feurio.com
#
DISCID=89083c0a
DTITLE=Speed Blues - Come on boogie !
DYEAR=1900
DGENRE=Bachata
TTITLE0=Come On Boogie
TTITLE1=Railway Station
TTITLE2=Tonight At This Club
TTITLE3=Morgenstress
TTITLE4=Steam Boat Boogie
TTITLE5=Rockin' Shoes
TTITLE6=Please Don't Go
TTITLE7=Please Come Back
TTITLE8=Crazy Harp Man
TTITLE9=Just Boogie On The Earth
EXTD=
EXTT0=
EXTT1=
EXTT2=
EXTT3=
EXTT4=
EXTT5=
EXTT6=
EXTT7=
EXTT8=
EXTT9=
PLAYORDER=
